#N canvas 827 239 527 327 12;
#X obj 348 138 loadbang;
#X obj 348 161 tgl 15 0 empty empty empty 17 7 0 10 #fcfcfc #000000 #000000 0 1;
#X obj 348 182 metro 500;
#X obj 348 206 tgl 15 0 empty empty empty 17 7 0 10 #fcfcfc #000000 #000000 0 1;
#X obj 192 229 s led @hv_param;
#X obj 391 229 s user_led @hv_param;
#X obj 344 304 osc~ 200;
#X obj 344 513 dac~;
#X obj 342 410 *~ 0.2;
#X connect 0 0 1 0;
#X connect 1 0 2 0;
#X connect 2 0 3 0;
#X connect 3 0 4 0;
#X connect 3 0 5 0;
#X connect 6 0 8 0;
#X connect 8 0 7 0;
#X connect 8 0 7 1;
