#N canvas 827 239 527 327 12;
#X obj 101 99 osc~ 200;
#X obj 103 41 +~;
#X obj 103 -29 *~;
#X obj 131 -194 hsl 128 17 0 127 0 0 empty empty empty -2 -8 0 10 #e4e4e4 #4d4d4d #373737 0 1;
#X obj -158 99 osc~ 200;
#X obj -158 55 +~;
#X obj -91 -44 hsl 128 17 0 127 0 0 empty empty empty -2 -8 0 10 #e4e4e4 #4d4d4d #373737 0 1;
#X obj -156 -29 *~;
#X obj -124 -211 hsl 128 17 0 127 0 0 empty empty empty -2 -8 0 10 #e4e4e4 #4d4d4d #373737 0 1;
#X obj -305 -211 hsl 128 17 0 127 0 0 empty empty empty -2 -8 0 10 #e4e4e4 #4d4d4d #373737 0 1;
#X obj 144 235 dac~;
#X obj 128 -71 mtof;
#X obj -132 -71 mtof;
#X obj -132 26 mtof;
#X floatatom -127 -163 11 0 0 0 - - - 16;
#X floatatom 128 -156 8 0 0 0 - - - 16;
#X floatatom -106 -13 12 0 0 0 - - - 16;
#X floatatom -308 -163 14 0 0 0 empty - - 16;
#X obj 293 -109 hsl 128 17 0 127 0 0 empty empty empty -2 -8 0 10 #e4e4e4 #4d4d4d #373737 0 1;
#X obj 290 14 mtof;
#X floatatom 290 -71 10 0 0 0 - - - 16;
#X obj 290 -283 loadbang;
#X obj 131 -292 loadbang;
#X obj -304 -294 loadbang;
#X msg -304 -246 10;
#X obj -127 -312 loadbang;
#X msg -127 -264 50;
#X msg 131 -244 50;
#X msg 290 -235 50;
#X obj 309 254 delwrite~ fb 1000;
#X obj -294 -79 delread~ fb 100;
#X obj 356 -189 r knob1 @hv_param;
#X obj 356 -156 * 127;
#X obj 196 -235 * 127;
#X obj 196 -348 r knob2 @hv_param;
#X obj -48 -263 * 127;
#X obj -29 -363 r knob3 @hv_param;
#X obj -42 -84 * 127;
#X obj -42 -126 r knob4 @hv_param;
#X obj 450 -136 r button @hv_param;
#X obj 420 94 line~;
#X obj 500 -26 delay 1000;
#X msg 502 3 0 1000;
#X obj 450 -95 bng 25 250 50 0 empty empty empty 17 7 0 10 #e4e4e4 #4d4d4d #373737;
#X obj 633 -27 tgl 15 0 empty empty empty 17 7 0 10 #fcfcfc #000000 #000000 0 1;
#X obj 633 -6 metro 500;
#X obj 633 18 tgl 15 0 empty empty empty 17 7 0 10 #fcfcfc #000000 #000000 0 1;
#X obj 633 41 s led @hv_param;
#X obj 680 -63 loadbang;
#X msg 420 52 1 1000;
#X obj 118 195 *~ 1;
#X connect 0 0 29 0;
#X connect 0 0 50 0;
#X connect 1 0 0 0;
#X connect 2 0 1 0;
#X connect 3 0 15 0;
#X connect 4 0 2 0;
#X connect 5 0 4 0;
#X connect 6 0 16 0;
#X connect 7 0 5 0;
#X connect 8 0 14 0;
#X connect 9 0 17 0;
#X connect 11 0 2 1;
#X connect 12 0 7 1;
#X connect 13 0 5 1;
#X connect 14 0 12 0;
#X connect 15 0 11 0;
#X connect 16 0 13 0;
#X connect 17 0 30 0;
#X connect 18 0 20 0;
#X connect 19 0 1 1;
#X connect 20 0 19 0;
#X connect 21 0 28 0;
#X connect 22 0 27 0;
#X connect 23 0 24 0;
#X connect 24 0 9 0;
#X connect 25 0 26 0;
#X connect 26 0 8 0;
#X connect 27 0 3 0;
#X connect 28 0 18 0;
#X connect 30 0 7 0;
#X connect 31 0 32 0;
#X connect 32 0 18 0;
#X connect 33 0 3 0;
#X connect 34 0 33 0;
#X connect 35 0 8 0;
#X connect 36 0 35 0;
#X connect 37 0 6 0;
#X connect 38 0 37 0;
#X connect 39 0 43 0;
#X connect 41 0 42 0;
#X connect 42 0 40 0;
#X connect 43 0 41 0;
#X connect 43 0 49 0;
#X connect 43 0 44 0;
#X connect 44 0 45 0;
#X connect 45 0 46 0;
#X connect 46 0 47 0;
#X connect 48 0 44 0;
#X connect 49 0 40 0;
#X connect 50 0 10 0;
#X connect 50 0 10 1;
