#N canvas 827 239 527 327 12;
#X obj 101 99 osc~ 200;
#X obj 101 55 +~;
#X obj 103 -29 *~;
#X obj 131 -108 hsl 128 17 0 127 0 0 empty empty empty -2 -8 0 10 #e4e4e4 #4d4d4d #373737 0 1;
#X obj -158 99 osc~ 200;
#X obj -158 55 +~;
#X obj -129 -1 hsl 128 17 0 127 0 0 empty empty empty -2 -8 0 10 #e4e4e4 #4d4d4d #373737 0 1;
#X obj -156 -29 *~;
#X obj -129 -108 hsl 128 17 0 127 0 0 empty empty empty -2 -8 0 10 #e4e4e4 #4d4d4d #373737 0 1;
#X obj 309 254 delwrite~ $fb 1000;
#X obj -305 -181 hsl 128 17 0 127 0 0 empty empty empty -2 -8 0 10 #e4e4e4 #4d4d4d #373737 0 1;
#X obj -308 -125 delread~ $fb 100;
#X obj 101 448 dac~;
#X obj 128 29 mtof;
#X obj 128 -71 mtof;
#X obj -132 -71 mtof;
#X obj -132 26 mtof;
#X obj -115 524 scope~ 422 367 256 3 128 -1 1 0 0 0 0 79 212 0 0 0 0 94 94 94 0 empty;
#X obj -670 290 palette/drumseq;
#X obj -617 100 palette/metronome;
#X obj -628 23 loadbang;
#X obj -653 560 palette/drums;
#X obj -394 623 *~ 2;
#X obj 208 -64 notein;
#X floatatom 206 -27 5 0 0 0 - - - 0;
#X obj 144 159 *~;
#X floatatom -127 -157 5 0 0 0 - - - 0;
#X obj -127 -201 ctlin 21;
#X floatatom 128 -157 5 0 0 0 - - - 0;
#X obj 128 -201 ctlin 22;
#X floatatom -308 -225 5 0 0 0 - - - 0;
#X obj -308 -269 ctlin 10;
#X floatatom -69 -27 5 0 0 0 - - - 0;
#X obj -69 -71 ctlin 23;
#X obj 247 99 adsr~ 100 10 10 100;
#X connect 0 0 25 0;
#X connect 1 0 0 0;
#X connect 2 0 1 0;
#X connect 3 0 14 0;
#X connect 4 0 2 0;
#X connect 4 0 17 0;
#X connect 5 0 4 0;
#X connect 6 0 16 0;
#X connect 7 0 5 0;
#X connect 8 0 15 0;
#X connect 10 0 11 0;
#X connect 11 0 7 0;
#X connect 13 0 1 1;
#X connect 14 0 2 1;
#X connect 15 0 7 1;
#X connect 16 0 5 1;
#X connect 18 0 21 0;
#X connect 19 0 18 0;
#X connect 20 0 19 0;
#X connect 21 0 22 0;
#X connect 22 0 12 0;
#X connect 22 0 12 1;
#X connect 23 0 24 0;
#X connect 23 1 34 0;
#X connect 24 0 13 0;
#X connect 25 0 9 0;
#X connect 25 0 12 0;
#X connect 25 0 12 1;
#X connect 26 0 8 0;
#X connect 27 0 26 0;
#X connect 28 0 3 0;
#X connect 29 0 28 0;
#X connect 30 0 10 0;
#X connect 31 0 30 0;
#X connect 32 0 6 0;
#X connect 33 0 32 0;
#X connect 34 0 25 1;
